<svg id="Capa_5" data-name="Capa 5" xmlns="http://www.w3.org/2000/svg" viewBox="0 0 257.77778 82.37037"><defs><style>.cls-1{fill:#fff;}.cls-2{fill:#213a8c;}</style></defs><g id="Capa_11" data-name="Capa 11"><rect class="cls-1" width="257.77778" height="82.37037"/><path class="cls-2" d="M512.59163,427.86915c5.04774-3.83008,11.46656-5.20152,17.67881-5.56775,9.53378-.04155,19.0675-.00608,28.60128-.01791-.01182,6.98051.0237,13.96676-.01761,20.94721-8.38133-6.265-16.70355-12.625-25.20877-18.70708-.02973,7.276.01188,14.55208-.02364,21.82807,9.79988.07677,19.60549-.05338,29.41116.06495.05338,8.67692-.01188,17.34775.03547,26.02438-2.68343-1.74955-5.36082-3.4991-8.003-5.31957a32.40925,32.40925,0,0,1-16.91025,5.26643c-.06489-7.32942.0058-14.65824-.02973-21.99339a15.67332,15.67332,0,0,0-4.4624.04729c.00609,7.29365.04734,14.58152-.01762,21.87511-7.36458.47273-15.03078-1.15848-21.05371-5.562a24.252,24.252,0,0,1-10.3378-18.2341c-.6205-8.1095,3.94233-15.92926,10.3378-20.65168Z" transform="translate(-465.98934 -414.44482)"/><path class="cls-2" d="M594.79639,422.30714c8.87233-.04729,17.74979-.02944,26.62785-.00574-.02364,6.69651.02364,13.39325-.03,20.09005-8.92481-6.60791-17.73188-13.38751-26.59783-20.08431Z" transform="translate(-465.98934 -414.44482)"/><path class="cls-2" d="M629.36777,422.30714c8.27488-.05917,16.544-.00574,24.8189-.02944,10.02436,10.48534,19.972,21.04769,29.97273,31.55087q.00869,9.07854,0,18.15183c-8.24544-.07738-16.51453.15929-24.74785-.10681-4.30885-4.13165-8.15076-8.7534-12.31763-13.0386-5.89272-6.39548-11.86281-12.72-17.73188-19.13276.03516-5.79833.01152-11.59671.00573-17.39509Z" transform="translate(-465.98934 -414.44482)"/><path class="cls-2" d="M660.39283,422.30714c7.91989-.05308,15.84036-.01182,23.76084-.02365.01152,8.42265.041,16.8395-.01791,25.25611q-11.86254-12.62491-23.74293-25.23246Z" transform="translate(-465.98934 -414.44482)"/><path class="cls-2" d="M581.817,423.19982a21.48949,21.48949,0,0,1,5.80418-.42568,24.49567,24.49567,0,0,1,3.99541,2.772q12.9448,9.78809,25.92424,19.54059c2.79543,2.1218,5.37844,4.79949,6.44856,8.20992a13.53243,13.53243,0,0,1-1.54865,11.10613c-3.18617,5.136-9.42177,7.7311-15.32028,7.58333-1.41879.183-2.52414-.84558-3.66471-1.50709-10.03654-6.54324-20.28545-12.98606-28.93264-21.34954-4.17869-3.78274-6.50169-9.84687-4.88809-15.37336,1.43061-5.58566,6.71465-9.43945,12.182-10.55632Z" transform="translate(-465.98934 -414.44482)"/><path class="cls-2" d="M629.362,446.52889c7.99087,8.3932,15.76358,16.99884,23.71349,25.43939-7.90257.00574-15.81093.0652-23.71349-.02943q.03546-12.705,0-25.41Z" transform="translate(-465.98934 -414.44482)"/><path class="cls-2" d="M569.51085,451.38151c9.522,6.86821,19.0087,13.778,28.60164,20.54522-9.53987.11827-19.07968.04729-28.62528.03576.01791-6.86247-.02944-13.71856.02364-20.581Z" transform="translate(-465.98934 -414.44482)"/><path class="cls-2" d="M507.96438,484.91126a1.836,1.836,0,0,0,.27.92822,1.78822,1.78822,0,0,0,1.59619.668,2.82125,2.82125,0,0,0,.93311-.14649,1.03656,1.03656,0,0,0,.81445-1.01513.87555.87555,0,0,0-.34326-.78223,3.4478,3.4478,0,0,0-1.08838-.39795l-.91016-.20605a4.12556,4.12556,0,0,1-1.26269-.44385,1.40565,1.40565,0,0,1-.64063-1.25782,1.93628,1.93628,0,0,1,.62695-1.48632,2.51182,2.51182,0,0,1,1.77491-.58106,3.08491,3.08491,0,0,1,1.79541.50977,1.84219,1.84219,0,0,1,.73877,1.63086h-.85547a1.41957,1.41957,0,0,0-1.70654-1.354,1.63552,1.63552,0,0,0-1.15723.33838,1.06045,1.06045,0,0,0-.352.78711.76834.76834,0,0,0,.41162.72266,6.05235,6.05235,0,0,0,1.22119.36572l.94238.21533a2.87963,2.87963,0,0,1,1.05225.4253,1.593,1.593,0,0,1,.64014,1.36767,1.70721,1.70721,0,0,1-.81153,1.59619,3.63645,3.63645,0,0,1-1.8872.48047,2.82047,2.82047,0,0,1-1.96241-.64062,2.1614,2.1614,0,0,1-.69531-1.72412Z" transform="translate(-465.98934 -414.44482)"/><path class="cls-2" d="M514.60647,480.3595v4.15381a2.43913,2.43913,0,0,0,.27441,1.2163,1.44191,1.44191,0,0,0,1.37207.73194,1.61246,1.61246,0,0,0,1.57373-.791,2.519,2.519,0,0,0,.22413-1.15722V480.3595h.92382v3.77392a4.36235,4.36235,0,0,1-.334,1.90723,2.80536,2.80536,0,0,1-4.62451,0,4.36318,4.36318,0,0,1-.3335-1.90723V480.3595Z" transform="translate(-465.98934 -414.44482)"/><path class="cls-2" d="M523.58059,484.91126a1.836,1.836,0,0,0,.27.92822,1.78822,1.78822,0,0,0,1.59619.668,2.82125,2.82125,0,0,0,.93311-.14649,1.03655,1.03655,0,0,0,.81445-1.01513.87555.87555,0,0,0-.34326-.78223,3.4478,3.4478,0,0,0-1.08838-.39795l-.91016-.20605a4.12556,4.12556,0,0,1-1.26269-.44385,1.40565,1.40565,0,0,1-.64063-1.25782,1.93625,1.93625,0,0,1,.627-1.48632,2.51178,2.51178,0,0,1,1.7749-.58106,3.08491,3.08491,0,0,1,1.79541.50977,1.84217,1.84217,0,0,1,.73877,1.63086h-.85547a1.41957,1.41957,0,0,0-1.70654-1.354,1.63552,1.63552,0,0,0-1.15723.33838,1.06045,1.06045,0,0,0-.352.78711.76835.76835,0,0,0,.41162.72266,6.05258,6.05258,0,0,0,1.22119.36572l.94238.21533a2.87963,2.87963,0,0,1,1.05225.4253,1.593,1.593,0,0,1,.64014,1.36767,1.70721,1.70721,0,0,1-.81153,1.59619,3.63645,3.63645,0,0,1-1.8872.48047,2.82047,2.82047,0,0,1-1.96241-.64062,2.1614,2.1614,0,0,1-.69531-1.72412Z" transform="translate(-465.98934 -414.44482)"/><path class="cls-2" d="M534.76956,481.32043a3.70815,3.70815,0,0,1,.66748,2.28223,3.99531,3.99531,0,0,1-.76368,2.50244,3.39419,3.39419,0,0,1-4.99511.146,3.87028,3.87028,0,0,1-.79151-2.49756,3.97263,3.97263,0,0,1,.67725-2.33252,2.932,2.932,0,0,1,2.5708-1.24414A3.07582,3.07582,0,0,1,534.76956,481.32043Zm-.80274,4.27881a3.67192,3.67192,0,0,0,.53711-1.98291,2.829,2.829,0,0,0-.61963-1.90722,2.11485,2.11485,0,0,0-1.69482-.72266,2.2081,2.2081,0,0,0-1.70166.71582,3.017,3.017,0,0,0-.65869,2.11084,3.085,3.085,0,0,0,.56494,1.88232,2.12457,2.12457,0,0,0,1.832.76612A1.89461,1.89461,0,0,0,533.96682,485.59924Z" transform="translate(-465.98934 -414.44482)"/><path class="cls-2" d="M541.33352,480.84924a2.37531,2.37531,0,0,1,.78174,1.52784h-.88721a1.84648,1.84648,0,0,0-.60156-1.0293,1.90669,1.90669,0,0,0-1.26465-.37988,2.02982,2.02982,0,0,0-1.60352.69775,3.18146,3.18146,0,0,0-.61035,2.13867,3.10387,3.10387,0,0,0,.55127,1.91406,1.92581,1.92581,0,0,0,1.644.73438,1.738,1.738,0,0,0,1.53271-.77344,2.93172,2.93172,0,0,0,.416-1.07031h.88769a3.0329,3.0329,0,0,1-.78711,1.7793,2.79846,2.79846,0,0,1-2.15869.86474,2.85066,2.85066,0,0,1-1.96728-.709,4.35927,4.35927,0,0,1-.26075-5.3335,2.875,2.875,0,0,1,2.34668-1.03369A2.75433,2.75433,0,0,1,541.33352,480.84924Z" transform="translate(-465.98934 -414.44482)"/><path class="cls-2" d="M543.49221,480.3595h.91943v6.71972h-.91943Z" transform="translate(-465.98934 -414.44482)"/><path class="cls-2" d="M551.42385,481.32043a3.70809,3.70809,0,0,1,.66748,2.28223,3.99531,3.99531,0,0,1-.76367,2.50244,3.3942,3.3942,0,0,1-4.99512.146,3.87034,3.87034,0,0,1-.7915-2.49756,3.97255,3.97255,0,0,1,.67725-2.33252,2.932,2.932,0,0,1,2.5708-1.24414A3.07579,3.07579,0,0,1,551.42385,481.32043Zm-.80273,4.27881a3.67192,3.67192,0,0,0,.53711-1.98291,2.82905,2.82905,0,0,0-.61963-1.90722,2.11487,2.11487,0,0,0-1.69483-.72266,2.20813,2.20813,0,0,0-1.70166.71582,3.01706,3.01706,0,0,0-.65869,2.11084,3.085,3.085,0,0,0,.56494,1.88232,2.12459,2.12459,0,0,0,1.832.76612A1.89461,1.89461,0,0,0,550.62112,485.59924Z" transform="translate(-465.98934 -414.44482)"/><path class="cls-2" d="M555.86477,480.3595h4.89941v.82373h-4.01171v2.04h3.70947v.77734h-3.70947v2.27832h4.08007v.80029h-4.96777Z" transform="translate(-465.98934 -414.44482)"/><path class="cls-2" d="M562.02639,480.3595h1.0752l3.394,5.44336V480.3595h.86426v6.71972h-1.02l-3.44434-5.439v5.439h-.86914Z" transform="translate(-465.98934 -414.44482)"/><path class="cls-2" d="M576.11965,480.3595v.80078h-2.26416v5.91894h-.92431v-5.91894H570.667v-.80078Z" transform="translate(-465.98934 -414.44482)"/><path class="cls-2" d="M577.0386,480.3595H581.938v.82373h-4.01172v2.04h3.70948v.77734h-3.70948v2.27832h4.08008v.80029H577.0386Z" transform="translate(-465.98934 -414.44482)"/><path class="cls-2" d="M588.01272,480.84924a2.37531,2.37531,0,0,1,.78174,1.52784h-.88721a1.84653,1.84653,0,0,0-.60156-1.0293,1.90671,1.90671,0,0,0-1.26465-.37988,2.02982,2.02982,0,0,0-1.60352.69775,3.18146,3.18146,0,0,0-.61035,2.13867,3.10387,3.10387,0,0,0,.55127,1.91406,1.9258,1.9258,0,0,0,1.644.73438,1.738,1.738,0,0,0,1.53272-.77344,2.9319,2.9319,0,0,0,.416-1.07031h.88769a3.0329,3.0329,0,0,1-.78711,1.7793,2.79846,2.79846,0,0,1-2.15869.86474,2.85071,2.85071,0,0,1-1.96729-.709,4.35929,4.35929,0,0,1-.26074-5.3335,2.875,2.875,0,0,1,2.34668-1.03369A2.75433,2.75433,0,0,1,588.01272,480.84924Z" transform="translate(-465.98934 -414.44482)"/><path class="cls-2" d="M589.96536,480.3595h1.07519l3.394,5.44336V480.3595h.86426v6.71972h-1.02l-3.44433-5.439v5.439h-.86914Z" transform="translate(-465.98934 -414.44482)"/><path class="cls-2" d="M602.26516,481.32043a3.70517,3.70517,0,0,1,.668,2.28223,3.99832,3.99832,0,0,1-.76367,2.50244,3.3942,3.3942,0,0,1-4.99512.146,3.87034,3.87034,0,0,1-.7915-2.49756,3.97262,3.97262,0,0,1,.67724-2.33252,2.93111,2.93111,0,0,1,2.57031-1.24414A3.0752,3.0752,0,0,1,602.26516,481.32043Zm-.80273,4.27881a3.66775,3.66775,0,0,0,.53711-1.98291,2.82878,2.82878,0,0,0-.61915-1.90722,2.11585,2.11585,0,0,0-1.69531-.72266,2.20706,2.20706,0,0,0-1.70117.71582,3.01706,3.01706,0,0,0-.65869,2.11084,3.085,3.085,0,0,0,.56494,1.88232,2.124,2.124,0,0,0,1.832.76612A1.89431,1.89431,0,0,0,601.46243,485.59924Z" transform="translate(-465.98934 -414.44482)"/><path class="cls-2" d="M604.01711,480.3595h.91016v5.91943h3.40332v.80029h-4.31348Z" transform="translate(-465.98934 -414.44482)"/><path class="cls-2" d="M614.76223,481.32043a3.71108,3.71108,0,0,1,.667,2.28223,3.99231,3.99231,0,0,1-.76367,2.50244,3.3942,3.3942,0,0,1-4.99512.146,3.87008,3.87008,0,0,1-.791-2.49756,3.97229,3.97229,0,0,1,.67676-2.33252,2.93284,2.93284,0,0,1,2.57129-1.24414A3.07639,3.07639,0,0,1,614.76223,481.32043Zm-.80273,4.27881a3.67619,3.67619,0,0,0,.53711-1.98291,2.82927,2.82927,0,0,0-.62012-1.90722,2.11386,2.11386,0,0,0-1.69434-.72266,2.20918,2.20918,0,0,0-1.70215.71582,3.01931,3.01931,0,0,0-.6582,2.11084,3.088,3.088,0,0,0,.56445,1.88232,2.1252,2.1252,0,0,0,1.832.76612A1.89491,1.89491,0,0,0,613.9595,485.59924Z" transform="translate(-465.98934 -414.44482)"/><path class="cls-2" d="M621.05618,480.55188a2.38689,2.38689,0,0,1,1.22558,1.84326h-.90137a1.63532,1.63532,0,0,0-.68164-1.07275,2.34667,2.34667,0,0,0-1.30371-.33594,2.04444,2.04444,0,0,0-1.57129.69971,3.0072,3.0072,0,0,0-.63769,2.08594,3.33293,3.33293,0,0,0,.52637,1.95068,1.94276,1.94276,0,0,0,1.71484.75244,2.1901,2.1901,0,0,0,1.50781-.52832,2.21493,2.21493,0,0,0,.61035-1.7085h-2.10449V483.484h2.9502v3.59521h-.585l-.21973-.86474a3.44015,3.44015,0,0,1-.81836.70459,3.07259,3.07259,0,0,1-1.52344.33838,2.966,2.966,0,0,1-2.05371-.77295,3.66918,3.66918,0,0,1-.93847-2.66211,3.82029,3.82029,0,0,1,.915-2.68506,2.91028,2.91028,0,0,1,2.251-.95166A3.45263,3.45263,0,0,1,621.05618,480.55188Z" transform="translate(-465.98934 -414.44482)"/><path class="cls-2" d="M625.42825,478.52551l-1.22071,1.32178h-.63183l.83789-1.32178Zm-1.42188,1.834h.919v6.71972h-.919Z" transform="translate(-465.98934 -414.44482)"/><path class="cls-2" d="M628.356,480.3595h1.0293l2.4375,6.71972h-.99707l-.68164-2.01269h-2.65723l-.72754,2.01269h-.93262Zm1.49609,3.96582-1.0205-2.96826-1.084,2.96826Z" transform="translate(-465.98934 -414.44482)"/><path class="cls-2" d="M634.0552,480.3595h1.06152l1.92969,3.22949,1.93066-3.22949h1.06543l-2.53808,4.01172v2.708h-.91016v-2.708Z" transform="translate(-465.98934 -414.44482)"/><path class="cls-2" d="M643.85793,484.91126a1.84082,1.84082,0,0,0,.26954.92822,1.78858,1.78858,0,0,0,1.59667.668,2.81823,2.81823,0,0,0,.93262-.14649,1.03656,1.03656,0,0,0,.81446-1.01513.87642.87642,0,0,0-.34278-.78223,3.45127,3.45127,0,0,0-1.08887-.39795l-.91015-.20605a4.12554,4.12554,0,0,1-1.2627-.44385,1.40566,1.40566,0,0,1-.64062-1.25782,1.93624,1.93624,0,0,1,.627-1.48632,2.5139,2.5139,0,0,1,1.77539-.58106,3.08223,3.08223,0,0,1,1.79492.50977,1.84247,1.84247,0,0,1,.73926,1.63086h-.85547a1.41968,1.41968,0,0,0-1.707-1.354,1.63719,1.63719,0,0,0-1.15723.33838,1.06171,1.06171,0,0,0-.35156.78711.768.768,0,0,0,.41114.72266,6.06073,6.06073,0,0,0,1.22167.36572l.94239.21533a2.88049,2.88049,0,0,1,1.05176.4253,1.59337,1.59337,0,0,1,.64062,1.36767,1.70722,1.70722,0,0,1-.81152,1.59619,3.63952,3.63952,0,0,1-1.8877.48047,2.82,2.82,0,0,1-1.96191-.64062,2.16137,2.16137,0,0,1-.69531-1.72412Z" transform="translate(-465.98934 -414.44482)"/><path class="cls-2" d="M649.59817,480.3595h4.89941v.82373h-4.01172v2.04h3.71v.77734h-3.71v2.27832h4.08008v.80029h-4.96777Z" transform="translate(-465.98934 -414.44482)"/><path class="cls-2" d="M655.86965,480.3595H658.98a3.11063,3.11063,0,0,1,1.26758.22412,1.5884,1.5884,0,0,1,.94727,1.5874,1.65437,1.65437,0,0,1-.94727,1.60547,1.382,1.382,0,0,1,.59278.4209,1.52185,1.52185,0,0,1,.22168.84619l.03125.90137a2.83529,2.83529,0,0,0,.06445.57177.5612.5612,0,0,0,.293.41163v.15087H660.3345a.86094.86094,0,0,1-.07325-.22412,4.343,4.343,0,0,1-.04589-.53076l-.05469-1.1206a.94234.94234,0,0,0-.48926-.88282,2.02405,2.02405,0,0,0-.81934-.12353h-2.07226v2.88183h-.91016Zm3.01465,3.07861a1.76611,1.76611,0,0,0,1.01367-.25635,1.04284,1.04284,0,0,0,.37207-.92383.99177.99177,0,0,0-.52148-.979,1.70445,1.70445,0,0,0-.74512-.13721h-2.22363v2.29639Z" transform="translate(-465.98934 -414.44482)"/><path class="cls-2" d="M662.89114,480.3595l1.93066,5.72265,1.90723-5.72265h1.02051l-2.45215,6.71972h-.96485l-2.44726-6.71972Z" transform="translate(-465.98934 -414.44482)"/><path class="cls-2" d="M668.815,480.3595h.91992v6.71972H668.815Z" transform="translate(-465.98934 -414.44482)"/><path class="cls-2" d="M676.024,480.84924a2.37373,2.37373,0,0,1,.78223,1.52784h-.8877a1.84375,1.84375,0,0,0-.60156-1.0293,1.90582,1.90582,0,0,0-1.26465-.37988,2.03051,2.03051,0,0,0-1.60352.69775,3.184,3.184,0,0,0-.61035,2.13867,3.10085,3.10085,0,0,0,.55176,1.91406,1.92487,1.92487,0,0,0,1.64356.73438,1.73944,1.73944,0,0,0,1.5332-.77344,2.949,2.949,0,0,0,.416-1.07031h.8877a3.03591,3.03591,0,0,1-.78711,1.7793,2.80026,2.80026,0,0,1-2.15918.86474,2.84947,2.84947,0,0,1-1.9668-.709,4.35742,4.35742,0,0,1-.26074-5.3335,2.875,2.875,0,0,1,2.34668-1.03369A2.75388,2.75388,0,0,1,676.024,480.84924Z" transform="translate(-465.98934 -414.44482)"/><path class="cls-2" d="M678.18313,480.3595h.91894v6.71972h-.91894Z" transform="translate(-465.98934 -414.44482)"/><path class="cls-2" d="M686.11477,481.32043a3.71108,3.71108,0,0,1,.667,2.28223,3.99231,3.99231,0,0,1-.76367,2.50244,3.3942,3.3942,0,0,1-4.99512.146,3.87008,3.87008,0,0,1-.791-2.49756,3.97229,3.97229,0,0,1,.67676-2.33252,2.93284,2.93284,0,0,1,2.57128-1.24414A3.0764,3.0764,0,0,1,686.11477,481.32043Zm-.80273,4.27881a3.67618,3.67618,0,0,0,.5371-1.98291,2.82927,2.82927,0,0,0-.62011-1.90722,2.11386,2.11386,0,0,0-1.69434-.72266,2.20918,2.20918,0,0,0-1.70215.71582,3.01931,3.01931,0,0,0-.6582,2.11084,3.088,3.088,0,0,0,.56445,1.88232,2.12519,2.12519,0,0,0,1.832.76612A1.89492,1.89492,0,0,0,685.312,485.59924Z" transform="translate(-465.98934 -414.44482)"/></g></svg>